<svg id="Layer_1" enable-background="new 0 0 512 512" height="512" viewBox="0 0 512 512" width="512" xmlns="http://www.w3.org/2000/svg"><g><g fill="#43809f"><path d="m180.797 257.856c-4.142 0-7.5 3.358-7.5 7.5v85.336c0 4.142 3.358 7.5 7.5 7.5s7.5-3.358 7.5-7.5v-85.336c0-4.142-3.358-7.5-7.5-7.5z"/><path d="m331.203 257.856c-4.142 0-7.5 3.358-7.5 7.5v85.336c0 4.142 3.358 7.5 7.5 7.5s7.5-3.358 7.5-7.5v-85.336c0-4.142-3.358-7.5-7.5-7.5z"/></g><path d="m423.123 101.998c-16.376.241-31.662 4.977-44.681 13.029-1.329.822-3.057-.065-3.135-1.626-3.177-63.163-55.391-113.401-119.343-113.401-63.938 0-116.142 50.215-119.34 113.358-.079 1.56-1.805 2.446-3.134 1.626-13.018-8.034-28.298-12.756-44.664-12.987-47.755-.674-87.677 37.698-88.801 85.444-1.161 49.327 38.477 89.677 87.541 89.677h336.869c49.063 0 88.701-40.35 87.541-89.676-1.125-47.766-41.079-86.146-88.853-85.444z" fill="#f3f3f3"/><g fill="#e4e4e4"><path d="m240.511.996c49.003 6.328 88.7 42.336 100.476 89.412 3.426 13.696 15.524 23.706 29.64 23.506 1.56-.022 3.123-.168 4.679-.513-3.176-63.163-55.39-113.401-119.342-113.401-5.237 0-10.394.343-15.453.996z"/><path d="m511.975 187.443c-1.124-47.767-41.078-86.147-88.852-85.445-4.852.071-9.605.547-14.236 1.377 40.061 7.207 71.193 41.987 72.183 84.068 1.16 49.326-38.478 89.676-87.541 89.676h30.905c49.063 0 88.702-40.35 87.541-89.676z"/></g><path d="m398.969 402.77h-285.628l17.729-53.281c2.102-6.294 8.159-10.559 14.989-10.559h220.459c6.83 0 12.888 4.265 14.989 10.559z" fill="#29cef6"/><path d="m381.219 349.489c-2.102-6.294-8.159-10.559-14.989-10.559h-30.905c6.83 0 12.888 4.265 14.989 10.559l17.462 53.281h30.905z" fill="#22b5ed"/><path d="m377.561 512h-243.122c-12.517 0-22.664-10.147-22.664-22.664v-78.294c0-12.517 10.147-22.664 22.664-22.664h243.123c12.517 0 22.664 10.147 22.664 22.664v78.294c-.001 12.517-10.148 22.664-22.665 22.664z" fill="#a9dbf5"/><path d="m377.561 388.378h-30.905c12.517 0 22.664 10.147 22.664 22.664v78.294c0 12.517-10.147 22.664-22.664 22.664h30.905c12.517 0 22.664-10.147 22.664-22.664v-78.294c0-12.517-10.147-22.664-22.664-22.664z" fill="#88c3e0"/><path d="m142.68 476.974v-53.569c0-2.276 1.845-4.121 4.121-4.121h218.398c2.276 0 4.121 1.845 4.121 4.121v53.569c0 2.276-1.845 4.121-4.121 4.121h-218.398c-2.276 0-4.121-1.845-4.121-4.121z" fill="#43809f"/><path d="m190.061 452.249c-8.534 0-15.453-6.918-15.453-15.453v-17.513h30.905v17.513c.001 8.535-6.917 15.453-15.452 15.453z" fill="#f78e36"/><path d="m241.577 452.249c-8.534 0-15.453-6.918-15.453-15.453v-17.513h30.905v17.513c.001 8.535-6.917 15.453-15.452 15.453z" fill="#f78e36"/><path d="m154.738 133.911c7.494 10.339 25.799 37.565 28.44 60.174.269 2.307 3.476 2.668 4.28.489 3.886-10.525 7.938-27.405.385-39.83-10.422-17.144-23.542-22.576-30.81-24.297-1.999-.473-3.5 1.801-2.295 3.464z" fill="#e4e4e4"/><path d="m408.754 175.357c-.574 4.067-1.944 9.893-3.168 14.627-1.143 4.422-5.123 7.514-9.69 7.514h-13.986c-4.567 0-8.547-3.092-9.69-7.514-1.224-4.734-2.594-10.559-3.168-14.627-.427-3.031-2.248-5.684-4.9-7.211l-12.922-7.442c-2.649-1.526-5.854-1.774-8.689-.63-3.825 1.543-9.592 3.278-14.325 4.591-4.395 1.219-9.058-.676-11.343-4.624l-6.983-12.065c-2.287-3.952-1.597-8.945 1.666-12.139 3.501-3.428 7.88-7.531 11.127-10.06 2.413-1.88 3.803-4.78 3.803-7.839v-14.865c0-3.059-1.39-5.959-3.803-7.839-3.247-2.53-7.625-6.633-11.127-10.06-3.263-3.194-3.953-8.187-1.666-12.139l6.983-12.065c2.285-3.948 6.947-5.843 11.343-4.624 4.733 1.312 10.5 3.048 14.325 4.591 2.835 1.144 6.04.896 8.689-.63l12.922-7.442c2.652-1.527 4.473-4.181 4.9-7.211.574-4.067 1.944-9.893 3.168-14.627 1.143-4.422 5.123-7.514 9.69-7.514h13.985c4.567 0 8.547 3.092 9.69 7.514 1.224 4.734 2.594 10.559 3.168 14.627.427 3.031 2.248 5.684 4.9 7.211l12.922 7.442c2.649 1.526 5.854 1.774 8.689.63 3.825-1.543 9.592-3.278 14.325-4.591 4.395-1.219 9.058.676 11.343 4.624l6.983 12.065c2.287 3.952 1.597 8.945-1.666 12.139-3.501 3.428-7.88 7.531-11.127 10.06-2.413 1.88-3.803 4.78-3.803 7.839v14.865c0 3.059 1.39 5.959 3.803 7.839 3.247 2.53 7.625 6.633 11.127 10.06 3.263 3.194 3.953 8.187 1.666 12.139l-6.983 12.065c-2.285 3.948-6.947 5.843-11.343 4.624-4.733-1.312-10.5-3.048-14.325-4.591-2.835-1.144-6.04-.896-8.689.63l-12.922 7.442c-2.652 1.528-4.472 4.181-4.899 7.211zm14.582-64.852c0-18.97-15.416-34.348-34.433-34.348s-34.433 15.378-34.433 34.348 15.416 34.348 34.433 34.348 34.433-15.378 34.433-34.348z" fill="#f78e36"/></g></svg>